<?xml version="1.0" encoding="UTF-8"?>
<svg id="Lag_1" data-name="Lag 1" xmlns="http://www.w3.org/2000/svg" viewBox="0 0 256 256">
  <defs>
    <style>
      .cls-1 {
        fill: #f1ecde;
      }

      .cls-2 {
        fill: #226f63;
      }
    </style>
  </defs>
  <polygon class="cls-1" points="188.64 256 61.62 256 20.37 37.97 234.47 37.97 188.64 256"/>
  <polygon class="cls-2" points="204.5 179.8 47.22 180.05 32.16 100.17 221.38 100.17 204.5 179.8"/>
  <g>
    <path class="cls-1" d="M82.79,157.02c-1.26,.63-3.77,1.26-6.99,1.26-7.46,0-13.08-4.71-13.08-13.4s5.62-13.91,13.83-13.91c3.3,0,5.38,.71,6.29,1.18l-.82,2.79c-1.3-.63-3.14-1.1-5.34-1.1-6.21,0-10.33,3.97-10.33,10.92,0,6.48,3.73,10.65,10.17,10.65,2.08,0,4.2-.43,5.58-1.1,0,0,.71,2.71,.71,2.71Z"/>
    <path class="cls-1" d="M108.87,144.37c0,9.11-5.54,13.95-12.3,13.95s-11.9-5.42-11.9-13.44c0-8.41,5.22-13.91,12.3-13.91s11.9,5.54,11.9,13.4Zm-20.55,.43c0,5.66,3.06,10.72,8.45,10.72s8.49-4.99,8.49-11c0-5.26-2.75-10.76-8.45-10.76s-8.49,5.22-8.49,11.04Z"/>
    <path class="cls-1" d="M113.31,131.41h14.26v2.87h-10.84v8.8h10.02v2.83h-10.02v11.98h-3.42v-26.48Z"/>
    <path class="cls-1" d="M132.44,131.41h14.26v2.87h-10.84v8.8h10.02v2.83h-10.02v11.98h-3.42v-26.48Z"/>
    <path class="cls-1" d="M165.28,145.47h-10.29v9.55h11.47v2.87h-14.89v-26.48h14.3v2.87h-10.88v8.37h10.29s0,2.83,0,2.83Z"/>
    <path class="cls-1" d="M184.61,145.47h-10.29v9.55h11.47v2.87h-14.89v-26.48h14.3v2.87h-10.88v8.37h10.29s0,2.83,0,2.83Z"/>
  </g>
  <path class="cls-2" d="M193.62,0H65.82L19.7,38.28H235.13L193.62,0ZM104.7,24.48l9.59-10.08h26.58l8.63,10.08h-44.8Z"/>
</svg>