<?xml version="1.0" encoding="UTF-8"?>
<svg id="Lag_1" data-name="Lag 1" xmlns="http://www.w3.org/2000/svg" viewBox="0 0 329.03 391">
  <defs>
    <style>
      .cls-1 {
        fill: #fff;
      }

      .cls-2 {
        fill: #e9e9e2;
      }

      .cls-3 {
        fill: #226f63;
      }
    </style>
  </defs>
  <polygon class="cls-2" points="258.03 391 64.03 391 1.03 58 328.03 58 258.03 391"/>
  <polygon class="cls-3" points="282.26 274.61 42.03 275 19.03 153 308.03 153 282.26 274.61"/>
  <g>
    <path class="cls-1" d="M96.36,239.83c-1.92,.96-5.76,1.92-10.68,1.92-11.4,0-19.98-7.2-19.98-20.46s8.58-21.24,21.12-21.24c5.04,0,8.22,1.08,9.6,1.8l-1.26,4.26c-1.98-.96-4.8-1.68-8.16-1.68-9.48,0-15.78,6.06-15.78,16.68,0,9.9,5.7,16.26,15.54,16.26,3.18,0,6.42-.66,8.52-1.68l1.08,4.14Z"/>
    <path class="cls-1" d="M136.19,220.51c0,13.92-8.46,21.3-18.78,21.3s-18.18-8.28-18.18-20.52c0-12.84,7.98-21.24,18.78-21.24s18.18,8.46,18.18,20.46Zm-31.38,.66c0,8.64,4.68,16.38,12.9,16.38s12.96-7.62,12.96-16.8c0-8.04-4.2-16.44-12.9-16.44s-12.96,7.98-12.96,16.86Z"/>
    <path class="cls-1" d="M142.98,200.71h21.78v4.38h-16.56v13.44h15.3v4.32h-15.3v18.3h-5.22v-40.44Z"/>
    <path class="cls-1" d="M172.19,200.71h21.78v4.38h-16.56v13.44h15.3v4.32h-15.3v18.3h-5.22v-40.44Z"/>
    <path class="cls-1" d="M222.35,222.19h-15.72v14.58h17.52v4.38h-22.74v-40.44h21.84v4.38h-16.62v12.78h15.72v4.32Z"/>
    <path class="cls-1" d="M251.87,222.19h-15.72v14.58h17.52v4.38h-22.74v-40.44h21.84v4.38h-16.62v12.78h15.72v4.32Z"/>
  </g>
  <path class="cls-3" d="M265.64,0H70.44L0,58.46H329.03L265.64,0ZM129.83,37.39l14.65-15.39h40.59l13.18,15.39h-68.42Z"/>
</svg>