<?xml version="1.0" encoding="UTF-8"?>
<svg id="Lag_1" data-name="Lag 1" xmlns="http://www.w3.org/2000/svg" viewBox="0 0 256 256">
  <defs>
    <style>
      .cls-1 {
        fill: #fff700;
      }

      .cls-2 {
        fill: gray;
      }
    </style>
  </defs>
  <path class="cls-1" d="M127.63,63.81c-29.69,0-53.77,24.08-53.77,53.79,0,9.78,2.74,18.87,7.17,26.85,13.2,23.8,16.71,37.16,18.87,50.09,1.8,10.84,4.3,13.36,12.49,13.36h30.51c8.2,0,10.7-2.52,12.5-13.36,2.17-12.94,5.67-26.3,18.87-50.09,4.44-7.97,7.17-17.07,7.17-26.85,0-29.72-24.07-53.79-53.79-53.79Z"/>
  <path class="cls-2" d="M146.87,211.8h-38.44c-1.6,0-2.89,1.29-2.89,2.88v1.93c0,1.59,1.29,2.88,2.89,2.88h38.44c1.58,0,2.87-1.29,2.87-2.88v-1.93c0-1.59-1.29-2.88-2.87-2.88Z"/>
  <path class="cls-2" d="M146.87,223.33h-38.44c-1.6,0-2.89,1.28-2.89,2.88v1.93c0,1.59,1.29,2.87,2.89,2.87h38.44c1.58,0,2.87-1.29,2.87-2.87v-1.93c0-1.6-1.29-2.88-2.87-2.88Z"/>
  <path class="cls-2" d="M146.87,234.86h-38.44c-1.6,0-2.89,1.29-2.89,2.88v1.93c0,1.59,1.29,2.88,2.89,2.88h38.44c1.58,0,2.87-1.29,2.87-2.88v-1.93c0-1.59-1.29-2.88-2.87-2.88Z"/>
  <path class="cls-2" d="M113.23,246.39h28.84c0,5.76-7.7,9.61-14.44,9.61s-14.4-3.84-14.4-9.61Z"/>
  <path class="cls-1" d="M189.41,25.94c4.9-8.59-8.34-16.29-13.28-7.72-2.59,4.48-21.32,36.93-21.32,36.93l13.32,7.69s16.64-28.85,21.27-36.86c0,0,0,0,0,0v-.03h0Z"/>
  <path class="cls-1" d="M219.39,56h-.04c-6.76,3.92-35.73,20.65-35.73,20.65l7.67,13.31s29.04-16.77,35.8-20.67c8.6-4.95,.88-18.21-7.71-13.3Z"/>
  <path class="cls-1" d="M135.61,7.44V48.43h-15.38V7.44c0-9.91,15.38-9.91,15.38,0Z"/>
  <path class="cls-1" d="M66.12,25.94c-4.9-8.59,8.34-16.29,13.29-7.72,2.59,4.48,21.32,36.93,21.32,36.93l-13.31,7.69s-16.67-28.85-21.29-36.86h0s0-.04,0-.04h0Z"/>
  <path class="cls-1" d="M36.15,56h.02c6.77,3.92,35.74,20.65,35.74,20.65l-7.69,13.31s-29.04-16.77-35.8-20.67c-8.59-4.95-.87-18.21,7.73-13.3Z"/>
</svg>